<svg xmlns="http://www.w3.org/2000/svg" xmlns:xlink="http://www.w3.org/1999/xlink" xmlns:svgjs="http://svgjs.com/svgjs" version="1.1" width="1780.945514678955" height="491.50001525878906"><rect width="1780.945514678955" height="491.50001525878906" fill="#ffffff"></rect><g transform="scale(5) translate(30, 30)"> <defs id="SvgjsDefs1038"></defs><g xmlns:name="main_text" id="SvgjsG1039" rel="mainfill" name="main_text" transform="translate(85.79910044670106,-223.2100067138672)" fill="#000000" style="fill: #000000"><path d="M4.56 231.63L4.56 226.57L12.93 226.57L12.93 231.63ZM16.27 240L16.27 236.64L14.61 234.99L16.27 233.31L16.27 224.91L14.61 223.21L1.20 223.21L1.20 240L4.56 240L4.56 234.99L9.57 234.99L11.25 236.64L12.93 238.34L12.93 240ZM18.66 223.21L18.66 238.34L20.32 240L32.07 240L33.73 238.34L33.73 223.21L30.40 223.21L30.40 236.64L22.02 236.64L22.02 223.21ZM49.54 240L51.19 238.34L51.19 231.60L49.54 229.92L39.49 229.92L39.49 226.57L47.86 226.57L47.86 228.24L51.19 228.24L51.19 224.91L49.54 223.21L37.78 223.21L36.13 224.91L36.13 232.11L37.78 233.31L47.86 233.31L47.86 236.64L39.49 236.64L39.49 234.99L36.13 234.99L36.13 238.34L37.78 240ZM52.87 233.31L59.57 233.31L59.57 229.95L52.87 229.95ZM76.31 228.24L71.30 223.21L61.25 223.21L61.25 240L74.66 240L76.31 238.34ZM72.98 236.64L64.61 236.64L64.61 226.57L69.62 226.57L72.98 229.92ZM81.83 240L81.83 223.21L78.47 223.21L78.47 240ZM98.48 240L98.48 236.64L87.59 236.64L87.59 233.31L97.64 233.31L97.64 229.95L87.59 229.95L87.59 226.57L98.48 226.57L98.48 223.21L84.23 223.21L84.23 240ZM114.05 240L115.70 238.34L115.70 231.60L114.05 229.92L104.00 229.92L104.00 226.57L112.37 226.57L112.37 228.24L115.70 228.24L115.70 224.91L114.05 223.21L102.29 223.21L100.64 224.91L100.64 232.11L102.29 233.31L112.37 233.31L112.37 236.64L104.00 236.64L104.00 234.99L100.64 234.99L100.64 238.34L102.29 240ZM132.35 240L132.35 236.64L121.46 236.64L121.46 233.31L131.51 233.31L131.51 229.95L121.46 229.95L121.46 226.57L132.35 226.57L132.35 223.21L118.10 223.21L118.10 240ZM134.51 223.21L134.51 240L148.76 240L148.76 236.64L137.87 236.64L137.87 223.21ZM150.20 240L153.56 240L153.56 236.64L150.20 236.64ZM169.13 240L170.78 238.34L170.78 234.99L167.45 234.99L167.45 236.64L159.08 236.64L159.08 226.57L167.45 226.57L167.45 228.24L170.78 228.24L170.78 224.91L169.13 223.21L157.37 223.21L155.72 224.91L155.72 238.34L157.37 240ZM176.30 236.64L176.30 226.57L184.68 226.57L184.68 236.64ZM186.35 240L188.01 238.34L188.01 224.91L186.35 223.21L174.60 223.21L172.94 224.91L172.94 238.34L174.60 240ZM193.77 240L193.77 228.68L198.25 235.13L201.06 235.13L205.45 228.68L205.45 240L208.81 240L208.81 223.21L205.57 223.21L199.62 231.34L193.77 223.21L190.41 223.21L190.41 240Z" fill="#000000" style="fill: #000000"></path></g><g xmlns:name="slogan_text" id="SvgjsG1040" rel="mainfill" name="slogan_text" transform="translate(84.58909862041475,-204.36000061035156)" fill="#000000" style="fill: #000000"><path d="M0.83 240L2.37 240L2.37 232.86L4.86 232.86L4.86 240L6.40 240L6.40 231.63L0.83 231.63ZM7.96 242.54L9.47 242.54L9.47 240.65C9.47 240.19 9.46 239.52 9.43 239.20L9.46 239.20C9.75 239.81 10.25 240.16 11.02 240.16C12.41 240.16 13.25 238.74 13.25 236.88C13.25 235.00 12.37 233.68 10.97 233.68C10.20 233.68 9.67 234.08 9.39 234.75L9.36 234.75C9.35 234.47 9.34 234.11 9.30 233.84L7.90 233.84C7.95 234.28 7.96 235.07 7.96 235.64ZM10.57 239.03C9.81 239.03 9.37 238.11 9.37 236.96C9.37 235.78 9.82 234.83 10.57 234.83C11.32 234.83 11.70 235.71 11.70 236.92C11.70 238.09 11.29 239.03 10.57 239.03ZM16.82 240.16C18.53 240.16 19.52 238.85 19.52 236.92C19.52 235.00 18.54 233.68 16.84 233.68C15.13 233.68 14.12 234.99 14.12 236.92C14.12 238.84 15.12 240.16 16.82 240.16ZM16.84 238.99C16.05 238.99 15.68 238.18 15.68 236.93C15.68 235.65 16.08 234.82 16.82 234.82C17.59 234.82 17.97 235.66 17.97 236.93C17.97 238.20 17.60 238.99 16.84 238.99ZM20.00 241.58L21.33 241.58L21.33 240L25.09 240L25.09 241.58L26.42 241.58L26.42 238.83L25.69 238.83L25.69 233.84L21.17 233.84L21.17 235.67C21.17 237.09 20.99 238.09 20.61 238.83L20.00 238.83ZM22.11 238.83C22.48 238.09 22.60 236.97 22.60 235.90L22.60 235.01L24.20 235.01L24.20 238.83ZM28.91 240.11C29.79 240.11 30.38 239.71 30.70 239.04L30.72 239.04C30.71 239.21 30.71 239.39 30.71 239.52C30.71 239.70 30.72 239.90 30.74 240L32.00 240C31.96 239.53 31.94 238.81 31.94 238.09C31.94 237.73 31.96 236.80 31.96 236.20C31.96 234.68 31.34 233.68 29.56 233.68C28.91 233.68 28.16 233.81 27.60 234.09L27.66 235.26C28.15 234.94 28.77 234.77 29.32 234.77C30.17 234.77 30.59 235.24 30.59 236.13L30.59 236.18C30.34 236.15 30.03 236.14 29.83 236.14C28.05 236.14 27.02 236.86 27.02 238.20C27.02 239.34 27.72 240.11 28.91 240.11ZM29.27 239.09C28.71 239.09 28.37 238.69 28.37 238.17C28.37 237.42 28.97 237.05 30.11 237.05C30.33 237.05 30.50 237.06 30.60 237.08C30.60 238.24 30.23 239.09 29.27 239.09ZM32.62 240L34.31 240L36.05 237.06L36.05 240L37.53 240L37.53 237.06L39.27 240L40.96 240L38.83 236.76L40.78 233.84L39.18 233.84L37.53 236.56L37.53 233.84L36.05 233.84L36.05 236.56L34.40 233.84L32.79 233.84L34.74 236.76ZM43.34 240.11C44.21 240.11 44.80 239.71 45.12 239.04L45.15 239.04C45.13 239.21 45.13 239.39 45.13 239.52C45.13 239.70 45.15 239.90 45.16 240L46.42 240C46.38 239.53 46.36 238.81 46.36 238.09C46.36 237.73 46.38 236.80 46.38 236.20C46.38 234.68 45.76 233.68 43.98 233.68C43.34 233.68 42.58 233.81 42.02 234.09L42.08 235.26C42.57 234.94 43.19 234.77 43.74 234.77C44.59 234.77 45.01 235.24 45.01 236.13L45.01 236.18C44.76 236.15 44.45 236.14 44.25 236.14C42.47 236.14 41.44 236.86 41.44 238.20C41.44 239.34 42.14 240.11 43.34 240.11ZM43.70 239.09C43.13 239.09 42.80 238.69 42.80 238.17C42.80 237.42 43.40 237.05 44.53 237.05C44.75 237.05 44.92 237.06 45.03 237.08C45.03 238.24 44.65 239.09 43.70 239.09ZM50.37 240L52.05 240L53.99 235.80C53.97 236.28 53.94 236.79 53.94 237.45L53.94 240L55.37 240L55.37 233.84L53.67 233.84L51.75 238.12C51.76 237.59 51.80 236.74 51.80 236.18L51.80 233.84L50.37 233.84ZM59.43 242.54L60.95 242.54L60.95 240.65C60.95 240.19 60.93 239.52 60.91 239.20L60.93 239.20C61.22 239.81 61.72 240.16 62.49 240.16C63.88 240.16 64.72 238.74 64.72 236.88C64.72 235.00 63.85 233.68 62.44 233.68C61.68 233.68 61.15 234.08 60.86 234.75L60.84 234.75C60.83 234.47 60.81 234.11 60.78 233.84L59.37 233.84C59.42 234.28 59.43 235.07 59.43 235.64ZM62.05 239.03C61.28 239.03 60.85 238.11 60.85 236.96C60.85 235.78 61.29 234.83 62.05 234.83C62.79 234.83 63.18 235.71 63.18 236.92C63.18 238.09 62.77 239.03 62.05 239.03ZM68.69 240.16C69.29 240.16 69.83 240.05 70.28 239.88L70.24 238.69C69.76 238.90 69.35 238.99 68.81 238.99C67.68 238.99 67.08 238.27 67.05 237.35L70.69 237.35C70.70 237.22 70.72 236.94 70.72 236.79C70.72 234.77 69.91 233.68 68.27 233.68C66.64 233.68 65.58 234.93 65.58 236.87C65.58 238.90 66.66 240.16 68.69 240.16ZM67.05 236.34C67.11 235.34 67.61 234.69 68.27 234.69C68.98 234.69 69.34 235.31 69.34 236.34ZM71.90 240L73.24 240L73.24 236.85C73.24 236.24 73.22 235.61 73.20 235.00L74.68 240L75.75 240L77.27 235.01C77.26 235.60 77.22 236.27 77.22 236.86L77.22 240L78.65 240L78.65 233.84L76.58 233.84L75.28 238.30L74.04 233.84L71.90 233.84ZM82.52 240.16C84.24 240.16 85.22 238.85 85.22 236.92C85.22 235.00 84.25 233.68 82.55 233.68C80.83 233.68 79.83 234.99 79.83 236.92C79.83 238.84 80.82 240.16 82.52 240.16ZM82.55 238.99C81.76 238.99 81.38 238.18 81.38 236.93C81.38 235.65 81.78 234.82 82.52 234.82C83.29 234.82 83.67 235.66 83.67 236.93C83.67 238.20 83.30 238.99 82.55 238.99ZM86.40 240L87.88 240L87.88 237.42L89.82 237.42L89.82 240L91.31 240L91.31 233.84L89.82 233.84L89.82 236.22L87.88 236.22L87.88 233.84L86.40 233.84ZM93.84 240L95.33 240L95.33 235.01L96.94 235.01L96.94 233.84L92.20 233.84L92.20 235.01L93.84 235.01ZM99.73 241.58L101.06 241.58L101.06 240L104.82 240L104.82 241.58L106.15 241.58L106.15 238.83L105.42 238.83L105.42 233.84L100.90 233.84L100.90 235.67C100.90 237.09 100.72 238.09 100.34 238.83L99.73 238.83ZM101.84 238.83C102.21 238.09 102.33 236.97 102.33 235.90L102.33 235.01L103.93 235.01L103.93 238.83ZM107.01 240L108.69 240L110.63 235.80C110.61 236.28 110.59 236.79 110.59 237.45L110.59 240L112.01 240L112.01 233.84L110.31 233.84L108.39 238.12C108.40 237.59 108.44 236.74 108.44 236.18L108.44 233.84L107.01 233.84ZM115.00 240.13C116.30 240.13 117.30 239.54 117.30 238.25C117.30 237.47 116.92 236.93 116.21 236.75C116.80 236.56 117.22 236.07 117.22 235.35C117.22 234.14 116.35 233.69 115.13 233.69C114.34 233.69 113.58 233.92 113.22 234.07L113.28 235.25C113.66 235.05 114.25 234.85 114.79 234.85C115.32 234.85 115.79 235.00 115.79 235.52C115.79 236.13 115.20 236.30 114.69 236.30C114.61 236.30 114.37 236.30 114.16 236.28L114.16 237.39C114.36 237.37 114.61 237.37 114.72 237.37C115.31 237.37 115.80 237.46 115.80 238.12C115.80 238.67 115.32 238.97 114.61 238.97C114.15 238.97 113.55 238.81 113.19 238.63L113.08 239.83C113.58 240.02 114.27 240.13 115.00 240.13ZM121.30 240.16C121.90 240.16 122.44 240.05 122.90 239.88L122.85 238.69C122.37 238.90 121.96 238.99 121.42 238.99C120.30 238.99 119.70 238.27 119.66 237.35L123.31 237.35C123.32 237.22 123.33 236.94 123.33 236.79C123.33 234.77 122.53 233.68 120.88 233.68C119.25 233.68 118.20 234.93 118.20 236.87C118.20 238.90 119.28 240.16 121.30 240.16ZM119.66 236.34C119.72 235.34 120.22 234.69 120.88 234.69C121.59 234.69 121.95 235.31 121.95 236.34ZM124.62 240.08C126.16 240.08 126.46 239.09 126.54 235.01L128.08 235.01L128.08 240L129.56 240L129.56 233.84L125.15 233.84C125.14 238.35 124.97 238.89 124.22 238.89C124.08 238.89 123.95 238.86 123.86 238.83L123.77 239.98C123.94 240.02 124.38 240.08 124.62 240.08ZM131.05 240L133.43 240C134.95 240 135.78 239.35 135.78 238.05C135.78 236.78 134.92 236.09 133.67 236.09L132.54 236.09L132.54 233.84L131.05 233.84ZM132.50 238.95L132.50 237.16L133.49 237.16C134.07 237.16 134.38 237.47 134.38 238.05C134.38 238.59 134.05 238.95 133.45 238.95ZM136.89 240L138.37 240L138.37 237.42L140.32 237.42L140.32 240L141.80 240L141.80 233.84L140.32 233.84L140.32 236.22L138.37 236.22L138.37 233.84L136.89 233.84ZM143.29 240L145.67 240C147.18 240 148.02 239.35 148.02 238.05C148.02 236.78 147.16 236.09 145.91 236.09L144.78 236.09L144.78 233.84L143.29 233.84ZM144.74 238.95L144.74 237.16L145.73 237.16C146.31 237.16 146.62 237.47 146.62 238.05C146.62 238.59 146.29 238.95 145.69 238.95ZM148.75 240L150.24 240L150.24 233.84L148.75 233.84ZM151.10 240L152.70 240C153.43 238.51 153.68 237.94 153.80 237.63L153.83 237.63C153.93 237.93 154.21 238.51 154.93 240L156.58 240L154.80 236.76L156.46 233.84L154.92 233.84C154.28 235.16 154.07 235.66 153.93 236.01L153.91 236.01C153.78 235.66 153.55 235.14 152.93 233.84L151.24 233.84L152.95 236.75ZM163.08 242.54L164.57 242.54L164.57 239.53C164.88 239.95 165.29 240.13 165.84 240.13C167.41 240.13 167.92 238.45 167.92 236.96C167.92 235.37 167.43 233.69 165.81 233.69C165.27 233.69 164.85 233.98 164.57 234.35L164.57 231.15L163.08 231.15L163.08 234.35C162.79 233.98 162.37 233.69 161.83 233.69C160.22 233.69 159.72 235.37 159.72 236.96C159.72 238.45 160.24 240.13 161.81 240.13C162.36 240.13 162.77 239.95 163.08 239.53ZM162.34 238.99C161.46 238.99 161.27 237.82 161.27 236.92C161.27 236.02 161.44 234.87 162.34 234.87C162.70 234.87 162.97 235.06 163.13 235.31L163.13 238.56C162.97 238.81 162.70 238.99 162.34 238.99ZM165.31 238.99C164.95 238.99 164.67 238.81 164.52 238.56L164.52 235.31C164.67 235.06 164.95 234.87 165.31 234.87C166.21 234.87 166.38 236.02 166.38 236.92C166.38 237.82 166.19 238.99 165.31 238.99ZM171.50 240.16C173.21 240.16 174.19 238.85 174.19 236.92C174.19 235.00 173.22 233.68 171.52 233.68C169.81 233.68 168.80 234.99 168.80 236.92C168.80 238.84 169.79 240.16 171.50 240.16ZM171.52 238.99C170.73 238.99 170.36 238.18 170.36 236.93C170.36 235.65 170.75 234.82 171.50 234.82C172.26 234.82 172.65 235.66 172.65 236.93C172.65 238.20 172.27 238.99 171.52 238.99ZM175.36 242.54L176.87 242.54L176.87 240.65C176.87 240.19 176.85 239.52 176.83 239.20L176.85 239.20C177.14 239.81 177.65 240.16 178.41 240.16C179.80 240.16 180.64 238.74 180.64 236.88C180.64 235.00 179.77 233.68 178.36 233.68C177.60 233.68 177.07 234.08 176.78 234.75L176.76 234.75C176.75 234.47 176.73 234.11 176.70 233.84L175.30 233.84C175.34 234.28 175.36 235.07 175.36 235.64ZM177.97 239.03C177.20 239.03 176.77 238.11 176.77 236.96C176.77 235.78 177.21 234.83 177.97 234.83C178.71 234.83 179.10 235.71 179.10 236.92C179.10 238.09 178.69 239.03 177.97 239.03ZM184.48 240.10C184.90 240.10 185.22 240.05 185.53 239.96L185.44 238.81C185.21 238.89 184.97 238.91 184.74 238.91C183.66 238.91 183.06 238.07 183.06 236.90C183.06 235.76 183.66 234.91 184.68 234.91C184.95 234.91 185.16 234.93 185.39 235.00L185.50 233.84C185.20 233.75 184.86 233.73 184.51 233.73C182.63 233.73 181.51 235.04 181.51 236.92C181.51 238.83 182.64 240.10 184.48 240.10ZM187.02 242.66C188.22 242.66 188.88 242.11 189.42 240.32L191.38 233.84L189.85 233.84C188.90 237.71 188.75 238.37 188.67 238.80L188.65 238.80C188.58 238.37 188.46 237.73 187.50 233.84L185.92 233.84L187.82 240.24C187.57 241.20 187.32 241.43 186.82 241.43C186.66 241.43 186.50 241.41 186.31 241.37L186.22 242.55C186.46 242.63 186.76 242.66 187.02 242.66ZM192.19 240L193.67 240L193.67 237.42L195.61 237.42L195.61 240L197.10 240L197.10 233.84L195.61 233.84L195.61 236.22L193.67 236.22L193.67 233.84L192.19 233.84ZM200.97 240.16C202.69 240.16 203.67 238.85 203.67 236.92C203.67 235.00 202.70 233.68 201.00 233.68C199.28 233.68 198.28 234.99 198.28 236.92C198.28 238.84 199.27 240.16 200.97 240.16ZM201.00 238.99C200.21 238.99 199.83 238.18 199.83 236.93C199.83 235.65 200.23 234.82 200.97 234.82C201.74 234.82 202.12 235.66 202.12 236.93C202.12 238.20 201.75 238.99 201.00 238.99ZM204.85 240L206.33 240L206.33 237.11L208.30 240L210.02 240L207.77 236.74L209.83 233.84L208.19 233.84L206.33 236.52L206.33 233.84L204.85 233.84Z" fill="#000000" style="fill: #000000"></path></g><g xmlns:name="symbol_mainfill" id="SvgjsG1041" rel="mainfill" name="symbol" transform="translate(-9.000900363922112,-25.849097251892093) scale(0.9)" fill="#5d8666" style="fill: #5d8666"><g fill="#5d8666" style="fill: #5d8666"><path fill="#5d8666" d="M35.782,35.459l2.27-2.177c0.241-0.231,0.414-0.442,0.386-0.471l-1.289-1.345   c-0.028-0.029-0.246,0.135-0.487,0.366l-2.27,2.176c-0.241,0.231-0.414,0.442-0.386,0.471l1.289,1.345   C35.323,35.853,35.541,35.689,35.782,35.459z" style="fill: #5d8666"></path><path fill="#5d8666" d="M47.823,35.829h-1.852h-1.878H41.5c-0.071,0-0.139,0.012-0.205,0.034l-2.382-2.485   c-0.113-0.118-0.401-0.026-0.642,0.204l-2.27,2.177c-0.241,0.23-0.345,0.514-0.231,0.632l4.871,5.081v4.282l-3.605-3.761   c-0.144-0.15-0.457-0.085-0.698,0.146l-2.27,2.176c-0.241,0.231-0.32,0.54-0.176,0.69l6.668,6.956   c0.022,0.023,0.05,0.041,0.08,0.055v15.44c0,0.657,0.385,1.19,0.86,1.19h1.313v2.127c0,0.177,0.142,0.317,0.317,0.317h1.21   c0.175,0,0.317-0.142,0.317-0.317v-2.127h1.313c0.475,0,0.86-0.532,0.86-1.19V49.981l1.747-1.359l-0.034-0.043   c0.024-0.015,0.048-0.029,0.073-0.043V36.687h0.001C48.617,36.212,48.262,35.829,47.823,35.829z" style="fill: #5d8666"></path><path fill="#5d8666" d="M34.264,41.168l-2.587-2.587c-0.124-0.124-0.325-0.124-0.449,0l-0.856,0.855   c-0.124,0.124-0.124,0.325,0,0.449l2.586,2.587c0.124,0.124,0.325,0.124,0.449,0l0.856-0.855   C34.388,41.493,34.388,41.292,34.264,41.168z" style="fill: #5d8666"></path><path fill="#5d8666" d="M34.47,43.506l0.855-0.855c0.124-0.124,0.156-0.294,0.07-0.379l-0.589-0.589   c-0.085-0.086-0.255-0.055-0.379,0.069l-0.856,0.856c-0.124,0.124-0.155,0.293-0.07,0.379l0.589,0.589   C34.176,43.661,34.346,43.63,34.47,43.506z" style="fill: #5d8666"></path><path fill="#5d8666" d="M42.582,35.356h3.541c0.646,0,1.171-0.301,1.171-0.672v-1.752c0-0.371-0.524-0.672-1.171-0.672h-3.541   c-0.647,0-1.171,0.301-1.171,0.672v1.752C41.411,35.056,41.935,35.356,42.582,35.356z" style="fill: #5d8666"></path><path fill="#5d8666" d="M43.316,32.003h1.771c0.323,0,0.585-0.301,0.585-0.672V29.58c0-0.371-0.262-0.672-0.585-0.672h-1.771   c-0.323,0-0.585,0.301-0.585,0.672v1.751C42.731,31.702,42.993,32.003,43.316,32.003z" style="fill: #5d8666"></path><path fill="#5d8666" d="M15.503,35.459l2.27-2.177c0.241-0.231,0.414-0.442,0.386-0.471l-1.289-1.345   c-0.028-0.029-0.246,0.135-0.487,0.366l-2.27,2.176c-0.241,0.231-0.414,0.442-0.386,0.471l1.289,1.345   C15.044,35.853,15.262,35.689,15.503,35.459z" style="fill: #5d8666"></path><path fill="#5d8666" d="M27.544,35.829h-1.852h-1.878h-2.593c-0.071,0-0.14,0.012-0.205,0.034l-2.383-2.485   c-0.113-0.118-0.4-0.026-0.642,0.204l-2.27,2.177c-0.241,0.23-0.345,0.514-0.231,0.632l4.871,5.081v4.282l-3.605-3.761   c-0.144-0.15-0.456-0.085-0.697,0.146l-2.27,2.176c-0.241,0.231-0.32,0.54-0.176,0.69l6.668,6.956   c0.022,0.023,0.05,0.041,0.08,0.055v15.44c0,0.657,0.385,1.19,0.86,1.19h1.313v2.127c0,0.177,0.142,0.317,0.317,0.317h1.21   c0.175,0,0.317-0.142,0.317-0.317v-2.127h1.313c0.475,0,0.86-0.532,0.86-1.19V49.981l1.746-1.359l-0.033-0.043   c0.024-0.015,0.048-0.029,0.073-0.043V36.687C28.337,36.212,27.982,35.829,27.544,35.829z" style="fill: #5d8666"></path><path fill="#5d8666" d="M13.984,41.168l-2.586-2.587c-0.124-0.124-0.325-0.124-0.449,0l-0.855,0.855   c-0.124,0.124-0.124,0.325,0,0.449l2.586,2.587c0.124,0.124,0.325,0.124,0.449,0l0.855-0.855   C14.108,41.493,14.108,41.292,13.984,41.168z" style="fill: #5d8666"></path><path fill="#5d8666" d="M14.19,43.506l0.856-0.855c0.124-0.124,0.155-0.294,0.07-0.379l-0.589-0.589   c-0.085-0.086-0.255-0.055-0.379,0.069l-0.856,0.856c-0.124,0.124-0.155,0.293-0.07,0.379l0.589,0.589   C13.896,43.661,14.066,43.63,14.19,43.506z" style="fill: #5d8666"></path><path fill="#5d8666" d="M22.302,35.356h3.541c0.647,0,1.171-0.301,1.171-0.672v-1.752c0-0.371-0.524-0.672-1.171-0.672h-3.541   c-0.646,0-1.171,0.301-1.171,0.672v1.752C21.131,35.056,21.656,35.356,22.302,35.356z" style="fill: #5d8666"></path><path fill="#5d8666" d="M23.037,32.003h1.771c0.323,0,0.585-0.301,0.585-0.672V29.58c0-0.371-0.262-0.672-0.585-0.672h-1.771   c-0.323,0-0.585,0.301-0.585,0.672v1.751C22.452,31.702,22.714,32.003,23.037,32.003z" style="fill: #5d8666"></path><path fill="#5d8666" d="M77.165,35.459l2.271-2.177c0.24-0.231,0.414-0.442,0.387-0.471l-1.289-1.345   c-0.028-0.029-0.246,0.135-0.487,0.366l-2.271,2.176c-0.24,0.231-0.414,0.442-0.387,0.471l1.289,1.345   C76.706,35.853,76.924,35.689,77.165,35.459z" style="fill: #5d8666"></path><path fill="#5d8666" d="M89.206,35.829h-1.853h-1.879h-2.593c-0.069,0-0.139,0.012-0.205,0.034l-2.383-2.485   c-0.112-0.118-0.399-0.026-0.642,0.204l-2.271,2.177c-0.241,0.23-0.345,0.514-0.231,0.632l4.871,5.081v4.282l-3.604-3.761   c-0.146-0.15-0.456-0.085-0.696,0.146l-2.271,2.176c-0.24,0.231-0.319,0.54-0.176,0.69l6.668,6.956   c0.022,0.023,0.051,0.041,0.08,0.055v15.44c0,0.657,0.386,1.19,0.859,1.19h1.313v2.127c0,0.177,0.143,0.317,0.318,0.317h1.209   c0.176,0,0.317-0.142,0.317-0.317v-2.127h1.313c0.475,0,0.858-0.532,0.858-1.19V49.981l1.746-1.359l-0.033-0.043   c0.024-0.015,0.05-0.029,0.073-0.043V36.687H90C90,36.212,89.645,35.829,89.206,35.829z" style="fill: #5d8666"></path><path fill="#5d8666" d="M75.646,41.168l-2.586-2.587c-0.125-0.124-0.326-0.124-0.449,0l-0.855,0.855   c-0.124,0.124-0.124,0.325,0,0.449l2.586,2.587c0.124,0.124,0.325,0.124,0.449,0l0.855-0.855   C75.771,41.493,75.771,41.292,75.646,41.168z" style="fill: #5d8666"></path><path fill="#5d8666" d="M75.854,43.506l0.854-0.855c0.124-0.124,0.155-0.294,0.069-0.379l-0.588-0.589   c-0.086-0.086-0.256-0.055-0.379,0.069l-0.856,0.856c-0.123,0.124-0.154,0.293-0.069,0.379l0.59,0.589   C75.559,43.661,75.729,43.63,75.854,43.506z" style="fill: #5d8666"></path><path fill="#5d8666" d="M83.965,35.356h3.541c0.646,0,1.171-0.301,1.171-0.672v-1.752c0-0.371-0.524-0.672-1.171-0.672h-3.541   c-0.646,0-1.171,0.301-1.171,0.672v1.752C82.794,35.056,83.318,35.356,83.965,35.356z" style="fill: #5d8666"></path><path fill="#5d8666" d="M84.699,32.003h1.771c0.323,0,0.586-0.301,0.586-0.672V29.58c0-0.371-0.263-0.672-0.586-0.672h-1.771   c-0.323,0-0.586,0.301-0.586,0.672v1.751C84.113,31.702,84.376,32.003,84.699,32.003z" style="fill: #5d8666"></path><path fill="#5d8666" d="M56.885,35.459l2.27-2.177c0.242-0.231,0.414-0.442,0.388-0.471l-1.289-1.345   c-0.028-0.029-0.246,0.135-0.487,0.366l-2.27,2.176c-0.241,0.231-0.414,0.442-0.387,0.471l1.289,1.345   C56.426,35.853,56.645,35.689,56.885,35.459z" style="fill: #5d8666"></path><path fill="#5d8666" d="M68.927,35.829h-1.852h-1.88h-2.592c-0.07,0-0.141,0.012-0.205,0.034l-2.383-2.485   c-0.113-0.118-0.4-0.026-0.643,0.204l-2.27,2.177c-0.242,0.23-0.346,0.514-0.231,0.632l4.871,5.081v4.282l-3.604-3.761   c-0.146-0.15-0.457-0.085-0.697,0.146l-2.271,2.176c-0.24,0.231-0.318,0.54-0.176,0.69l6.669,6.956   c0.022,0.023,0.05,0.041,0.08,0.055v15.44c0,0.657,0.385,1.19,0.858,1.19h1.313v2.127c0,0.177,0.144,0.317,0.317,0.317h1.211   c0.176,0,0.316-0.142,0.316-0.317v-2.127h1.313c0.475,0,0.858-0.532,0.858-1.19V49.981l1.746-1.359l-0.033-0.043   c0.024-0.015,0.049-0.029,0.073-0.043V36.687h0.003C69.721,36.212,69.366,35.829,68.927,35.829z" style="fill: #5d8666"></path><path fill="#5d8666" d="M55.367,41.168l-2.586-2.587c-0.124-0.124-0.325-0.124-0.449,0l-0.855,0.855   c-0.123,0.124-0.123,0.325,0,0.449l2.586,2.587c0.125,0.124,0.326,0.124,0.449,0l0.855-0.855   C55.491,41.493,55.491,41.292,55.367,41.168z" style="fill: #5d8666"></path><path fill="#5d8666" d="M55.573,43.506l0.854-0.855c0.124-0.124,0.155-0.294,0.07-0.379l-0.589-0.589   c-0.086-0.086-0.255-0.055-0.38,0.069l-0.855,0.856c-0.124,0.124-0.154,0.293-0.068,0.379l0.588,0.589   C55.279,43.661,55.449,43.63,55.573,43.506z" style="fill: #5d8666"></path><path fill="#5d8666" d="M63.686,35.356h3.541c0.646,0,1.172-0.301,1.172-0.672v-1.752c0-0.371-0.524-0.672-1.172-0.672h-3.541   c-0.646,0-1.17,0.301-1.17,0.672v1.752C62.516,35.056,63.039,35.356,63.686,35.356z" style="fill: #5d8666"></path><path fill="#5d8666" d="M64.42,32.003h1.771c0.322,0,0.586-0.301,0.586-0.672V29.58c0-0.371-0.264-0.672-0.586-0.672H64.42   c-0.322,0-0.585,0.301-0.585,0.672v1.751C63.835,31.702,64.098,32.003,64.42,32.003z" style="fill: #5d8666"></path></g></g> </g></svg>
